<?xml version="1.0" encoding="utf-8"?>
<!-- Generator: Adobe Illustrator 16.0.0, SVG Export Plug-In . SVG Version: 6.00 Build 0)  -->
<!DOCTYPE svg PUBLIC "-//W3C//DTD SVG 1.1//EN" "http://www.w3.org/Graphics/SVG/1.1/DTD/svg11.dtd">
<svg version="1.1" id="Capa_1" xmlns="http://www.w3.org/2000/svg" xmlns:xlink="http://www.w3.org/1999/xlink" x="0px" y="0px"
	 width="15px" height="15px" viewBox="0 0 15 15" enable-background="new 0 0 15 15" xml:space="preserve">
<g transform="matrix( 1, 0, 0, 1, 0,0) ">
	<g>
		<g id="a">
			<path fill="#030104" d="M6.398,2.741V1.405H5.233c-0.596,0-1.065,0.196-1.403,0.587C3.467,2.418,3.285,3.024,3.285,3.811v0.91
				c0,0.714-0.104,1.23-0.31,1.548C2.742,6.591,2.341,6.752,1.771,6.752H1.5v1.497h0.27c0.57,0,0.972,0.161,1.205,0.483
				c0.206,0.284,0.31,0.782,0.31,1.496v0.962c0,0.782,0.182,1.371,0.545,1.769c0.338,0.423,0.807,0.636,1.403,0.636h1.165v-1.391
				l-0.974-0.053c-0.155-0.035-0.284-0.106-0.389-0.215c-0.105-0.104-0.182-0.269-0.23-0.48c-0.053-0.213-0.079-0.48-0.079-0.802
				V9.959c0-0.606-0.117-1.106-0.35-1.496C4.119,8.071,3.783,7.768,3.37,7.552V7.391c0.413-0.176,0.749-0.46,1.007-0.852
				c0.232-0.43,0.35-0.932,0.35-1.503V4.29c0-0.32,0.025-0.586,0.079-0.801c0.048-0.177,0.125-0.337,0.23-0.484
				C5.141,2.936,5.27,2.866,5.424,2.792L6.398,2.741 M13.5,6.752h-0.309c-0.548,0-0.939-0.161-1.172-0.484
				c-0.231-0.318-0.348-0.833-0.348-1.548v-0.91c0-0.787-0.168-1.393-0.5-1.818c-0.341-0.391-0.807-0.587-1.402-0.587H8.563v1.335
				l1.015,0.051c0.127,0.074,0.243,0.144,0.348,0.213c0.102,0.146,0.179,0.307,0.23,0.484c0.053,0.214,0.079,0.481,0.079,0.801
				v0.747c0,0.571,0.13,1.073,0.39,1.503c0.231,0.392,0.559,0.676,0.974,0.852v0.161c-0.415,0.216-0.742,0.52-0.974,0.911
				c-0.26,0.39-0.39,0.89-0.39,1.496v0.695c0,0.321-0.026,0.589-0.079,0.802c-0.052,0.212-0.129,0.376-0.23,0.48
				c-0.104,0.108-0.221,0.18-0.348,0.215l-1.015,0.053v1.391H9.77c0.596,0,1.062-0.213,1.402-0.636c0.332-0.397,0.5-0.986,0.5-1.769
				v-0.962c0-0.714,0.116-1.212,0.348-1.496c0.232-0.322,0.624-0.483,1.172-0.483H13.5V6.752z"/>
		</g>
	</g>
</g>
</svg>
