<?xml version="1.0" encoding="utf-8"?>
<!-- Generator: Adobe Illustrator 21.0.0, SVG Export Plug-In . SVG Version: 6.00 Build 0)  -->
<svg version="1.1" id="Capa_1" xmlns="http://www.w3.org/2000/svg" xmlns:xlink="http://www.w3.org/1999/xlink" x="0px" y="0px"
	 viewBox="0 0 16 16" style="enable-background:new 0 0 16 16;" xml:space="preserve">
<style type="text/css">
	.st0{fill:#FFFFFF;}
</style>
<g>
	<path d="M8,0C3.6,0,0,3.6,0,8s3.6,8,8,8s8-3.6,8-8S12.4,0,8,0z M11.3,6.7c0,0.1-0.1,0.1-0.1,0.1L9.7,7l0.7,0.2
		c0.1,0,0.1,0.1,0.1,0.1c0,0.1,0,0.1,0,0.2c-0.3,0.7-2.8,3-4.3,3c-0.4,0-0.7-0.1-0.9-0.4c-0.6,0.9-1.1,1.8-1.7,2.8
		c0,0.1-0.1,0.1-0.2,0.1c0,0-0.1,0-0.1,0c-0.1-0.1-0.1-0.2-0.1-0.3c0.6-1.1,1.2-2.1,1.8-3c0,0,0,0,0,0c0,0,0.1-0.1,0.1-0.1
		c0.1-0.1,0.1-0.2,0.2-0.3c0.2-0.2,0.3-0.5,0.5-0.7c0-0.1,0.1-0.1,0.1-0.2c0.2-0.3,0.4-0.5,0.7-0.8c0.1-0.1,0.1-0.1,0.2-0.2
		c0.2-0.2,0.5-0.5,0.8-0.7c0,0,0,0,0.1-0.1C8,6.4,8.3,6.2,8.7,6c0.1-0.1,0.2-0.1,0.3-0.2c0.4-0.2,0.7-0.4,1.1-0.6
		c0.1,0,0.1-0.2,0.1-0.3c0-0.1-0.2-0.1-0.3-0.1C7.5,6,6.1,7.4,4.9,9.1C4.6,7.4,6.1,6.1,6.1,6c0,0,0.1-0.1,0.2,0C6.4,6,6.4,6,6.4,6.1
		l0.1,0.3C6.7,6,6.8,5.6,6.9,5.4c0.3-0.3,1.5-0.9,1.7-1.1c0.1,0,0.2,0,0.2,0l0.2,0.2L9.3,4c0,0,0.1-0.1,0.1-0.1
		c0.1,0,2.1-0.8,3.3-0.8c0.1,0,0.1,0,0.2,0.1c0,0.1,0,0.1,0,0.2L11.3,6.7z"/>
	<path class="st0" d="M10.2,5.5c0.1,0,0.1-0.2,0.1-0.3c0-0.1-0.2-0.1-0.3-0.1C9.6,5.4,9.3,5.6,8.9,5.8C8.8,5.8,8.8,5.9,8.7,6
		C8.3,6.2,8,6.4,7.7,6.6c0,0,0,0-0.1,0.1C7.4,6.9,7.1,7.1,6.9,7.4C6.8,7.4,6.7,7.5,6.7,7.6C6.4,7.8,6.2,8.1,6,8.3
		c0,0.1-0.1,0.1-0.1,0.2C5.7,8.7,5.5,8.9,5.3,9.2C5.3,9.3,5.2,9.4,5.1,9.5c0,0-0.1,0.1-0.1,0.1c0,0,0,0.1,0,0.1
		C5.1,9.8,5.2,9.9,5.2,10C6.4,8.2,7.8,6.7,10.2,5.5z"/>
</g>
</svg>
