<?xml version="1.0" encoding="utf-8"?>
<!-- Generator: Adobe Illustrator 21.0.0, SVG Export Plug-In . SVG Version: 6.00 Build 0)  -->
<svg version="1.1" id="Capa_1" xmlns="http://www.w3.org/2000/svg" xmlns:xlink="http://www.w3.org/1999/xlink" x="0px" y="0px"
	 viewBox="0 0 16 16" style="enable-background:new 0 0 16 16;" xml:space="preserve">
<g>
	<path d="M8,6.2C7,6.2,6.2,7,6.2,8.1c0,1,0.8,1.8,1.8,1.8s1.8-0.8,1.8-1.8C9.8,7,9,6.2,8,6.2z"/>
	<path d="M8,0C3.6,0,0,3.6,0,8s3.6,8,8,8s8-3.6,8-8S12.4,0,8,0z M13.9,8.2c-0.9,2.1-3.5,3.9-5.9,3.9s-5.1-1.8-6-4C2,8.1,2,7.9,2,7.8
		c0.8-2.2,3.6-4,6-4s5.1,1.8,6,3.9c0,0.1,0,0.1,0,0.2v0.1C14,8.1,13.9,8.2,13.9,8.2z"/>
</g>
</svg>
