<?xml version="1.0" encoding="utf-8"?>
<!-- Generator: Adobe Illustrator 21.0.0, SVG Export Plug-In . SVG Version: 6.00 Build 0)  -->
<svg version="1.1" id="Capa_1" xmlns="http://www.w3.org/2000/svg" xmlns:xlink="http://www.w3.org/1999/xlink" x="0px" y="0px"
	 viewBox="0 0 16 16" style="enable-background:new 0 0 16 16;" xml:space="preserve">
<g>
	<polygon points="6.8,8.6 7.6,8.6 7.2,7.5 	"/>
	<path d="M8,0C3.6,0,0,3.6,0,8s3.6,8,8,8s8-3.6,8-8S12.4,0,8,0z M8.2,10.2L7.9,9.5H6.5l-0.3,0.7H4.4L3.8,9.1H3.3v1.1H2.1V5.8h1.5
		c2,0,2.2,2.2,1.1,3.1l0.4,0.8l1.4-3.9h1.1l1.5,4.5H8.2z M13.2,10.2h-1.1l-0.7-2.5l-0.7,2.5H9.6l-1-4.5h1.1L10.2,8l0.6-2.2h1.1
		L12.6,8L13,5.8h1.1L13.2,10.2z"/>
	<path d="M3.7,6.9H3.3V8h0.4C4.5,8,4.5,6.9,3.7,6.9z"/>
</g>
</svg>
